<svg width="32" height="32" viewBox="0 0 32 32" fill="none" xmlns="http://www.w3.org/2000/svg">
<path d="M19.7044 2.0625L6.00003 19H14L12.0307 29.8269C12.0269 29.8481 12.0279 29.8699 12.0335 29.8907C12.0391 29.9116 12.0491 29.9309 12.063 29.9474C12.0769 29.9639 12.0943 29.9772 12.1138 29.9863C12.1334 29.9954 12.1547 30 12.1763 30V30C12.1992 30 12.2219 29.9946 12.2424 29.9843C12.2629 29.974 12.2807 29.959 12.2944 29.9406L26 13H18L19.9788 2.17188C19.9814 2.1503 19.9795 2.12841 19.973 2.10766C19.9666 2.0869 19.9558 2.06776 19.9413 2.0515C19.9269 2.03524 19.9092 2.02224 19.8894 2.01336C19.8695 2.00448 19.848 1.99993 19.8263 2V2C19.8025 2.0001 19.779 2.0058 19.7579 2.01666C19.7367 2.02753 19.7184 2.04323 19.7044 2.0625V2.0625Z" stroke="black" stroke-width="1.5" stroke-linecap="round" stroke-linejoin="round"/>
</svg>
