<svg width="32" height="32" viewBox="0 0 32 32" fill="none" xmlns="http://www.w3.org/2000/svg">
<path d="M16 1.99976C8.26875 1.99976 2 8.431 2 16.356C2 22.6997 6.0125 28.0747 11.575 29.9747C11.653 29.9917 11.7327 30.0001 11.8125 29.9997C12.3312 29.9997 12.5312 29.6185 12.5312 29.2872C12.5312 28.9435 12.5187 28.0435 12.5125 26.8435C12.0494 26.9521 11.5756 27.0087 11.1 27.0122C8.40625 27.0122 7.79375 24.9185 7.79375 24.9185C7.15625 23.2622 6.2375 22.8185 6.2375 22.8185C5.01875 21.9622 6.23125 21.9372 6.325 21.9372H6.33125C7.7375 22.0622 8.475 23.4247 8.475 23.4247C9.175 24.6497 10.1125 24.9935 10.95 24.9935C11.5038 24.9824 12.049 24.8546 12.55 24.6185C12.675 23.6935 13.0375 23.0622 13.4375 22.6997C10.3312 22.3372 7.0625 21.106 7.0625 15.606C7.0625 14.0372 7.60625 12.756 8.5 11.756C8.35625 11.3935 7.875 9.931 8.6375 7.956C8.73978 7.93153 8.8449 7.92102 8.95 7.92475C9.45625 7.92475 10.6 8.1185 12.4875 9.431C14.781 8.78932 17.2065 8.78932 19.5 9.431C21.3875 8.1185 22.5312 7.92475 23.0375 7.92475C23.1426 7.92102 23.2477 7.93153 23.35 7.956C24.1125 9.931 23.6312 11.3935 23.4875 11.756C24.3812 12.7623 24.925 14.0435 24.925 15.606C24.925 21.1185 21.65 22.331 18.5312 22.6872C19.0312 23.131 19.4812 24.006 19.4812 25.3435C19.4812 27.2622 19.4625 28.8122 19.4625 29.281C19.4625 29.6185 19.6562 29.9997 20.175 29.9997C20.259 30.0001 20.3428 29.9917 20.425 29.9747C25.9937 28.0747 30 22.6935 30 16.356C30 8.431 23.7312 1.99976 16 1.99976Z" fill="black"/>
</svg>
