<svg width="30" height="32" viewBox="0 0 30 32" fill="none" xmlns="http://www.w3.org/2000/svg">
<path d="M15 31.7499C14.5513 31.7499 14.096 31.6374 13.7009 31.4249L9.56919 29.1437C8.95312 28.8187 9.25446 28.7062 9.45535 28.6437C10.279 28.3749 10.4464 28.3187 11.3237 27.8499C11.4174 27.7999 11.5379 27.8187 11.6317 27.8749L14.8058 29.6312C14.9196 29.6937 15.0803 29.6937 15.1875 29.6312L27.5558 22.9687C27.6696 22.9062 27.7433 22.7812 27.7433 22.6562V9.33118C27.7433 9.19993 27.6696 9.08118 27.5491 9.01243L15.1875 2.35618C15.0737 2.29368 14.9196 2.29368 14.8058 2.35618L2.45089 9.01868C2.33036 9.08118 2.2567 9.20618 2.2567 9.33743V22.6562C2.2567 22.7812 2.33036 22.9062 2.45089 22.9624L5.83928 24.7874C7.6808 25.6437 8.8058 24.6374 8.8058 23.6187V10.4687C8.8058 10.2812 8.96651 10.1374 9.16741 10.1374H10.7344C10.9286 10.1374 11.096 10.2812 11.096 10.4687V23.6249C11.096 25.9124 9.75669 27.2249 7.43303 27.2249C6.71652 27.2249 6.15402 27.2249 4.58705 26.4999L1.34598 24.7562C0.54241 24.3249 0.046875 23.5187 0.046875 22.6499V9.33118C0.046875 8.46868 0.54241 7.65618 1.34598 7.22493L13.7009 0.562427C14.4844 0.149927 15.5223 0.149927 16.2991 0.562427L28.6674 7.23118C29.471 7.66243 29.9665 8.46868 29.9665 9.33743V22.6562C29.9665 23.5187 29.471 24.3249 28.6674 24.7624L16.2991 31.4249C15.904 31.6374 15.4553 31.7499 15 31.7499ZM24.9844 18.6187C24.9844 16.1249 23.1763 15.4624 19.3795 14.9937C15.5357 14.5187 15.1473 14.2749 15.1473 13.4374C15.1473 12.7437 15.4754 11.8187 18.3214 11.8187C20.8594 11.8187 21.7969 12.3312 22.1853 13.9312C22.2187 14.0812 22.3661 14.1937 22.5335 14.1937H24.1406C24.2411 14.1937 24.3348 14.1562 24.4018 14.0874C24.4687 14.0187 24.5022 13.9249 24.4955 13.8312C24.2478 11.0749 22.2857 9.79368 18.3214 9.79368C14.7924 9.79368 12.6897 11.1812 12.6897 13.5124C12.6897 16.0374 14.7857 16.7374 18.1674 17.0499C22.2187 17.4187 22.5335 17.9749 22.5335 18.7187C22.5335 20.0062 21.4219 20.5562 18.817 20.5562C15.5424 20.5562 14.8259 19.7874 14.5848 18.2687C14.558 18.1062 14.4107 17.9874 14.2299 17.9874H12.6295C12.4286 17.9874 12.2745 18.1374 12.2745 18.3187C12.2745 20.2624 13.4062 22.5812 18.8237 22.5812C22.7344 22.5749 24.9844 21.1312 24.9844 18.6187Z" fill="black"/>
</svg>
