<svg width="30" height="28" viewBox="0 0 30 28" fill="none" xmlns="http://www.w3.org/2000/svg">
<path d="M24.5039 9.07373C24.1875 8.96124 23.8711 8.855 23.5547 8.755C23.6074 8.52376 23.6543 8.29253 23.7012 8.06129C24.4219 4.33649 23.9473 1.3429 22.3477 0.355449C20.8066 -0.58825 18.293 0.392947 15.75 2.75532C15.498 2.98656 15.252 3.2303 15.0176 3.47403C14.8594 3.31154 14.6953 3.14905 14.5312 2.99281C11.8652 0.467943 9.19336 -0.5945 7.59375 0.399197C6.05859 1.34915 5.60156 4.16775 6.24609 7.69256C6.31055 8.04254 6.38086 8.38627 6.46289 8.73625C6.08789 8.84875 5.71875 8.97374 5.37305 9.10498C2.24414 10.2612 0 12.0861 0 13.9735C0 15.9234 2.39063 17.8795 5.64258 19.0669C5.90625 19.1607 6.16992 19.2544 6.43945 19.3357C6.35156 19.7107 6.27539 20.0794 6.20508 20.4606C5.58984 23.9292 6.07031 26.679 7.60547 27.6227C9.1875 28.5977 11.8477 27.5977 14.4375 25.1791C14.6426 24.9854 14.8477 24.7854 15.0527 24.5729C15.3105 24.8416 15.5801 25.0979 15.8496 25.3479C18.3574 27.6477 20.8359 28.5789 22.3652 27.6352C23.9473 26.6603 24.4629 23.7042 23.7949 20.1044C23.7422 19.8294 23.6836 19.5482 23.6191 19.2607C23.8066 19.2044 23.9883 19.1419 24.1699 19.0794C27.5508 17.8858 30 15.9546 30 13.9735C30 12.0798 27.6914 10.2424 24.5039 9.07373ZM16.5762 3.76777C18.7559 1.74288 20.7891 0.949168 21.7148 1.51789C22.7051 2.1241 23.0859 4.57397 22.4648 7.79255C22.4238 8.00504 22.3828 8.21128 22.3301 8.41752C21.0293 8.10503 19.7109 7.88005 18.3867 7.75505C17.625 6.59262 16.793 5.48018 15.8906 4.43648C16.1191 4.20524 16.3418 3.98651 16.5762 3.76777ZM9.79688 17.217C10.0957 17.7608 10.4004 18.3045 10.7227 18.8357C9.80859 18.7295 8.90039 18.5732 8.00391 18.367C8.26172 17.467 8.58398 16.5358 8.95898 15.5859C9.22852 16.1359 9.50391 16.6796 9.79688 17.217ZM8.02148 9.6987C8.86523 9.49871 9.76172 9.33622 10.6934 9.21123C10.3828 9.72995 10.0781 10.2612 9.79102 10.7986C9.50391 11.3299 9.22266 11.8736 8.95898 12.4236C8.58984 11.4924 8.2793 10.5799 8.02148 9.6987ZM9.62695 14.0047C10.0137 13.1423 10.4355 12.2986 10.8809 11.4674C11.3262 10.6362 11.8066 9.82994 12.3105 9.03624C13.1895 8.96749 14.0859 8.92999 15 8.92999C15.9141 8.92999 16.8164 8.96749 17.6895 9.03624C18.1875 9.82369 18.6621 10.6299 19.1133 11.4549C19.5645 12.2798 19.9863 13.1235 20.3848 13.9797C19.9922 14.8422 19.5703 15.6921 19.1191 16.5296C18.6738 17.3608 18.1992 18.167 17.7012 18.967C16.8281 19.0357 15.9199 19.0669 15 19.0669C14.0801 19.0669 13.1895 19.0357 12.3281 18.9795C11.8184 18.1857 11.3379 17.3733 10.8867 16.5421C10.4355 15.7109 10.0195 14.8672 9.62695 14.0047ZM20.209 17.2045C20.5078 16.6546 20.7891 16.0984 21.0645 15.5359C21.4395 16.4421 21.7676 17.3608 22.0547 18.3045C21.1465 18.5232 20.2266 18.692 19.3008 18.8045C19.6172 18.2795 19.916 17.742 20.209 17.2045ZM21.0527 12.4236C20.7773 11.8736 20.4961 11.3236 20.2031 10.7861C19.916 10.2549 19.6172 9.72995 19.3066 9.21123C20.25 9.33622 21.1523 9.50496 21.9961 9.7112C21.7266 10.6361 21.4102 11.5361 21.0527 12.4236ZM15.0117 5.39268C15.627 6.10514 16.207 6.8551 16.7461 7.63006C15.5859 7.57381 14.4199 7.57381 13.2598 7.63006C13.834 6.82385 14.4258 6.07389 15.0117 5.39268ZM8.21484 1.56164C9.19922 0.949168 11.3848 1.82412 13.6875 3.999C13.834 4.1365 13.9805 4.28649 14.1328 4.43648C13.2246 5.48018 12.3867 6.59262 11.6191 7.75505C10.2949 7.88005 8.98242 8.09879 7.68164 8.40502C7.60547 8.08629 7.54102 7.7613 7.47656 7.43632C6.92578 4.41148 7.28906 2.13035 8.21484 1.56164ZM6.7793 18.0358C6.5332 17.9608 6.29297 17.8795 6.05273 17.792C4.80469 17.3733 3.38672 16.7108 2.36133 15.8421C1.76953 15.4046 1.37109 14.7297 1.25977 13.9735C1.25977 12.8298 3.11133 11.3674 5.7832 10.3737C6.11719 10.2487 6.45703 10.1362 6.79688 10.0299C7.19531 11.3861 7.67578 12.7173 8.23242 14.0047C7.66992 15.3109 7.18359 16.6608 6.7793 18.0358ZM13.6113 24.1604C12.6445 25.1041 11.5254 25.8541 10.3066 26.3666C9.65625 26.6978 8.90625 26.729 8.23828 26.4478C7.30664 25.8728 6.91992 23.6667 7.44727 20.6981C7.51172 20.3481 7.58203 19.9981 7.66406 19.6544C8.97656 19.9544 10.3008 20.1606 11.6426 20.2669C12.416 21.4356 13.2656 22.5543 14.1738 23.6042C13.9863 23.7979 13.7988 23.9854 13.6113 24.1604ZM15.0469 22.6418C14.4492 21.9543 13.8516 21.1918 13.2715 20.3731C13.834 20.3981 14.4141 20.4106 15 20.4106C15.6035 20.4106 16.1953 20.3981 16.7812 20.3669C16.2422 21.1606 15.6621 21.9168 15.0469 22.6418ZM22.7051 24.5167C22.6523 25.2791 22.3008 25.9916 21.7383 26.4728C20.8066 27.0478 18.8203 26.2978 16.6758 24.3354C16.4297 24.1104 16.1836 23.8667 15.9316 23.6167C16.8281 22.5605 17.6543 21.4418 18.4043 20.2669C19.7461 20.1481 21.082 19.9294 22.4004 19.6107C22.459 19.8669 22.5117 20.1231 22.5586 20.3731C22.8457 21.7231 22.8926 23.1292 22.7051 24.5167ZM23.7715 17.7983C23.6074 17.8545 23.4434 17.9108 23.2734 17.9608C22.8633 16.5983 22.3594 15.2672 21.7793 13.9735C22.3418 12.6985 22.8164 11.3861 23.2148 10.0424C23.5195 10.1362 23.8125 10.2362 24.0938 10.3362C26.8242 11.3361 28.7402 12.8235 28.7402 13.961C28.7402 15.1859 26.6953 16.7671 23.7715 17.7983ZM15 16.8608C16.4824 16.8608 17.6836 15.5796 17.6836 13.9985C17.6836 12.4173 16.4824 11.1361 15 11.1361C13.5176 11.1361 12.3164 12.4173 12.3164 13.9985C12.3164 15.5796 13.5176 16.8608 15 16.8608Z" fill="black"/>
</svg>
